<?xml version="1.0" standalone="no"?>
<!DOCTYPE svg PUBLIC "-//W3C//DTD SVG 20010904//EN"
 "http://www.w3.org/TR/2001/REC-SVG-20010904/DTD/svg10.dtd">
<svg version="1.0" xmlns="http://www.w3.org/2000/svg"
 width="511.737112pt" height="511.574222pt" viewBox="0 0 511.737112 511.574222"
 preserveAspectRatio="xMidYMid meet">
<metadata>
Created by potrace 1.12, written by Peter Selinger 2001-2015
</metadata>
<g transform="translate(-0.131455,511.774506) scale(0.100000,-0.100000)"
fill="#000000" stroke="none">
<path d="M1770 5113 c-505 -14 -749 -59 -1008 -185 -286 -140 -533 -421 -641
-731 -109 -313 -126 -567 -118 -1787 7 -1042 20 -1199 118 -1479 114 -324 341
-587 635 -737 246 -125 445 -166 903 -185 310 -14 1779 -6 1986 10 314 25 503
71 713 173 296 145 543 434 650 760 101 307 117 561 109 1763 -7 1037 -20
1194 -118 1474 -114 324 -341 587 -635 737 -241 122 -447 166 -872 184 -196 8
-1448 11 -1722 3z m1697 -463 c334 -14 491 -42 649 -114 185 -86 339 -240 419
-421 59 -135 87 -267 107 -515 18 -219 18 -1953 0 -2134 -32 -335 -103 -522
-261 -688 -180 -190 -376 -267 -761 -298 -202 -17 -1599 -25 -1930 -11 -377
15 -523 40 -688 116 -182 85 -337 241 -417 420 -59 135 -87 268 -107 515 -18
218 -18 1953 0 2134 32 334 102 519 260 687 213 227 458 299 1062 312 331 8
1466 5 1667 -3z"/>
<path d="M3880 4229 c-99 -15 -185 -77 -230 -166 -35 -67 -36 -196 -2 -264 94
-192 352 -233 495 -80 198 212 22 552 -263 510z"/>
<path d="M2340 3855 c-282 -52 -529 -183 -721 -382 -169 -174 -275 -368 -337
-610 -25 -99 -27 -124 -27 -303 0 -179 2 -204 27 -303 153 -602 666 -1007
1278 -1007 299 0 563 89 800 271 236 180 402 434 476 731 32 127 43 359 25
489 -78 535 -464 961 -993 1095 -87 22 -130 27 -278 30 -120 2 -198 -1 -250
-11z m470 -480 c272 -86 476 -289 566 -565 26 -79 28 -97 28 -250 0 -153 -2
-171 -28 -250 -90 -275 -290 -475 -566 -566 -79 -26 -96 -28 -250 -28 -153 0
-171 2 -250 28 -275 90 -476 290 -566 566 -26 79 -28 96 -28 250 0 154 2 171
28 250 99 303 328 512 641 586 42 9 102 13 200 10 118 -3 154 -8 225 -31z"/>
</g>
</svg>
