<svg width="1000" height="1000" viewBox="0 0 1000 1000" fill="none" xmlns="http://www.w3.org/2000/svg">
<g clip-path="url(#clip0_11_27)" filter="url(#filter0_ii_11_27)">
<path d="M394.825 159.633C327.491 161.499 294.958 167.499 260.425 184.299C222.291 202.966 189.358 240.433 174.958 281.766C160.425 323.499 158.158 357.366 159.225 520.033C160.158 658.966 161.891 679.899 174.958 717.233C190.158 760.433 220.425 795.499 259.625 815.499C292.425 832.166 318.958 837.633 380.025 840.166C421.358 842.033 617.225 840.966 644.825 838.833C686.691 835.499 711.891 829.366 739.891 815.766C779.358 796.433 812.291 757.899 826.558 714.433C840.025 673.499 842.158 639.633 841.091 479.366C840.158 341.099 838.425 320.166 825.358 282.833C810.158 239.633 779.891 204.566 740.691 184.566C708.558 168.299 681.091 162.433 624.425 160.033C598.291 158.966 431.358 158.566 394.825 159.633ZM621.091 221.366C665.625 223.233 686.558 226.966 707.625 236.566C732.291 248.033 752.825 268.566 763.491 292.699C771.358 310.699 775.091 328.299 777.758 361.366C780.158 390.566 780.158 621.766 777.758 645.899C773.491 690.566 764.025 715.499 742.958 737.633C718.958 762.966 692.825 773.233 641.491 777.366C614.558 779.633 428.291 780.699 384.158 778.833C333.891 776.833 314.425 773.499 292.425 763.366C268.158 752.033 247.491 731.233 236.825 707.366C228.958 689.366 225.225 671.633 222.558 638.699C220.158 609.633 220.158 378.299 222.558 354.166C226.825 309.633 236.158 284.966 257.225 262.566C285.625 232.299 318.291 222.699 398.825 220.966C442.958 219.899 594.291 220.299 621.091 221.366Z" fill="#E3E6F2"/>
<path d="M676.158 277.499C662.958 279.499 651.491 287.766 645.491 299.633C640.825 308.566 640.691 325.766 645.225 334.833C657.758 360.433 692.158 365.899 711.225 345.499C737.625 317.233 714.158 271.899 676.158 277.499Z" fill="#E3E6F2"/>
<path d="M470.825 327.366C433.225 334.299 400.291 351.766 374.691 378.299C352.158 401.499 338.025 427.366 329.758 459.633C326.425 472.833 326.158 476.166 326.158 500.033C326.158 523.899 326.425 527.233 329.758 540.433C350.158 620.699 418.558 674.699 500.158 674.699C540.025 674.699 575.225 662.833 606.825 638.566C638.291 614.566 660.425 580.699 670.291 541.099C674.558 524.166 676.025 493.233 673.625 475.899C663.225 404.566 611.758 347.766 541.225 329.899C529.625 326.966 523.891 326.299 504.158 325.899C488.158 325.633 477.758 326.033 470.825 327.366ZM533.491 391.366C569.758 402.833 596.958 429.899 608.958 466.699C612.425 477.233 612.691 479.633 612.691 500.033C612.691 520.433 612.425 522.833 608.958 533.366C596.958 570.033 570.291 596.699 533.491 608.833C522.958 612.299 520.691 612.566 500.158 612.566C479.758 612.566 477.358 612.299 466.825 608.833C430.158 596.833 403.358 570.166 391.358 533.366C387.891 522.833 387.625 520.566 387.625 500.033C387.625 479.499 387.891 477.233 391.358 466.699C404.558 426.299 435.091 398.433 476.825 388.566C482.425 387.366 490.425 386.833 503.491 387.233C519.225 387.633 524.025 388.299 533.491 391.366Z" fill="#E3E6F2"/>
</g>
<defs>
<filter id="filter0_ii_11_27" x="139" y="139" width="722.316" height="722.099" filterUnits="userSpaceOnUse" color-interpolation-filters="sRGB">
<feFlood flood-opacity="0" result="BackgroundImageFix"/>
<feBlend mode="normal" in="SourceGraphic" in2="BackgroundImageFix" result="shape"/>
<feColorMatrix in="SourceAlpha" type="matrix" values="0 0 0 0 0 0 0 0 0 0 0 0 0 0 0 0 0 0 127 0" result="hardAlpha"/>
<feOffset dx="-20" dy="-20"/>
<feGaussianBlur stdDeviation="20"/>
<feComposite in2="hardAlpha" operator="arithmetic" k2="-1" k3="1"/>
<feColorMatrix type="matrix" values="0 0 0 0 1 0 0 0 0 1 0 0 0 0 1 0 0 0 1 0"/>
<feBlend mode="normal" in2="shape" result="effect1_innerShadow_11_27"/>
<feColorMatrix in="SourceAlpha" type="matrix" values="0 0 0 0 0 0 0 0 0 0 0 0 0 0 0 0 0 0 127 0" result="hardAlpha"/>
<feOffset dx="20" dy="20"/>
<feGaussianBlur stdDeviation="20"/>
<feComposite in2="hardAlpha" operator="arithmetic" k2="-1" k3="1"/>
<feColorMatrix type="matrix" values="0 0 0 0 0.756863 0 0 0 0 0.768627 0 0 0 0 0.807843 0 0 0 1 0"/>
<feBlend mode="normal" in2="effect1_innerShadow_11_27" result="effect2_innerShadow_11_27"/>
</filter>
<clipPath id="clip0_11_27">
<rect width="682.316" height="682.099" fill="white" transform="translate(159 159)"/>
</clipPath>
</defs>
</svg>
