<?xml version="1.0" standalone="no"?>
<!DOCTYPE svg PUBLIC "-//W3C//DTD SVG 20010904//EN"
 "http://www.w3.org/TR/2001/REC-SVG-20010904/DTD/svg10.dtd">
<svg version="1.0" xmlns="http://www.w3.org/2000/svg"
 width="1997.616490pt" height="1836.159570pt" viewBox="0 0 1997.616490 1836.159570"
 preserveAspectRatio="xMidYMid meet">
<metadata>
Created by potrace 1.12, written by Peter Selinger 2001-2015
</metadata>
<g transform="translate(-0.882464,1836.737292) scale(0.100000,-0.100000)"
fill="#000000" stroke="none">
<path d="M9685 18363 c-315 -6 -799 -41 -1180 -84 -1304 -146 -2621 -523
-3777 -1082 -1581 -764 -2885 -1886 -3698 -3182 -534 -851 -849 -1704 -970
-2630 -63 -481 -68 -1026 -14 -1495 149 -1300 689 -2506 1609 -3595 558 -660
1251 -1257 2045 -1762 167 -106 542 -323 715 -413 77 -40 141 -74 143 -75 1
-2 -22 -101 -52 -221 -29 -121 -82 -336 -116 -479 -34 -143 -133 -552 -220
-910 -87 -357 -211 -868 -275 -1135 -117 -485 -167 -684 -226 -900 -25 -91
-32 -136 -33 -217 -1 -88 2 -105 20 -130 51 -68 141 -63 336 19 132 56 156 71
1113 698 710 465 1279 837 1720 1125 187 122 518 338 735 480 217 142 485 317
594 388 l200 129 55 -6 c242 -29 338 -38 569 -56 813 -62 1711 -47 2467 41
636 74 1354 213 1940 375 258 71 827 263 1123 379 156 60 427 178 632 275
1299 610 2384 1422 3215 2405 849 1004 1393 2169 1569 3360 54 367 61 472 61
915 0 443 -7 547 -61 915 -138 934 -505 1862 -1067 2693 -508 754 -1154 1424
-1942 2013 -1092 817 -2411 1432 -3855 1794 -856 216 -1769 339 -2690 365
-316 9 -391 9 -685 3z m-1617 -5509 c107 -31 211 -93 292 -174 83 -83 122
-148 174 -292 19 -51 131 -352 249 -668 118 -316 319 -854 446 -1195 127 -341
243 -651 258 -690 14 -38 37 -83 50 -99 53 -63 88 -155 96 -251 4 -44 112
-348 298 -842 28 -72 54 -159 59 -192 33 -236 -137 -462 -377 -502 -194 -32
-393 78 -477 264 -18 39 -93 235 -167 435 l-133 362 -986 -2 -985 -3 -132
-325 c-207 -507 -211 -516 -259 -569 -91 -101 -205 -151 -343 -151 -177 0
-327 96 -405 260 -29 61 -31 72 -31 180 l0 115 82 200 c45 110 156 382 246
605 91 223 206 506 257 630 51 124 145 356 210 515 65 160 155 380 200 490 45
110 135 331 200 490 64 160 147 362 183 450 36 88 106 260 155 381 106 260
116 281 176 355 99 125 259 215 431 242 50 8 173 -2 233 -19z m6134 -25 c113
-24 240 -113 294 -204 62 -107 59 -56 64 -915 l5 -785 310 300 c170 165 465
451 655 635 923 895 893 868 977 908 66 31 89 37 163 40 140 7 236 -28 337
-122 141 -130 180 -337 97 -512 -36 -77 -69 -110 -834 -850 -352 -340 -640
-623 -640 -628 0 -4 47 -74 103 -155 57 -80 206 -291 330 -468 125 -178 329
-468 454 -645 502 -715 575 -821 593 -864 115 -267 -58 -572 -350 -617 -139
-21 -280 25 -376 125 -29 29 -208 276 -399 548 -191 272 -432 614 -534 760
-103 146 -252 358 -331 472 -80 114 -149 206 -153 205 -5 -1 -98 -88 -207
-192 l-199 -190 -1 -681 c0 -654 -1 -685 -20 -747 -24 -78 -86 -175 -140 -217
-21 -16 -69 -45 -107 -62 -58 -28 -81 -33 -163 -36 -77 -3 -106 1 -154 17
-167 59 -279 192 -306 364 -15 94 -14 4052 0 4145 40 253 285 423 532 371z
m-8083 -20 c113 -26 241 -120 294 -216 147 -271 -9 -607 -308 -662 -38 -7
-256 -11 -612 -11 l-553 0 0 -1789 c0 -1156 -4 -1807 -10 -1842 -6 -30 -23
-81 -39 -114 -84 -172 -242 -263 -435 -253 -72 4 -96 10 -159 41 -96 47 -167
119 -215 216 l-37 75 -3 1833 -2 1833 -578 0 c-627 0 -641 1 -743 56 -113 62
-211 204 -229 334 -32 223 111 435 333 495 44 11 308 14 1652 14 1045 0 1615
-3 1644 -10z m4982 -29 c163 -50 278 -179 308 -344 8 -41 11 -597 11 -1813 l0
-1753 703 0 c464 0 723 -4 762 -11 235 -43 406 -283 365 -510 -32 -180 -159
-319 -333 -365 -43 -11 -223 -14 -1018 -14 -608 0 -986 4 -1019 10 -120 23
-246 114 -303 218 -60 110 -57 -8 -57 2192 0 2199 -3 2065 56 2182 49 97 159
183 274 214 70 19 179 17 251 -6z"/>
<path d="M7882 11500 c-5 -14 -80 -196 -165 -405 -85 -209 -228 -559 -317
-778 -89 -219 -160 -400 -158 -403 3 -2 286 -3 631 -2 l625 3 -224 600 c-123
330 -252 674 -285 765 -34 91 -70 183 -79 205 -18 40 -18 40 -28 15z"/>
</g>
</svg>
