<svg width="1000" height="1000" viewBox="0 0 1000 1000" fill="none" xmlns="http://www.w3.org/2000/svg">
<g clip-path="url(#clip0_12_44)" filter="url(#filter0_ii_12_44)">
<path d="M489.07 178.153C478.032 178.363 461.072 179.59 447.721 181.097C402.027 186.213 355.877 199.424 315.368 219.012C259.967 245.784 214.273 285.101 185.784 330.515C167.072 360.335 156.033 390.226 151.793 422.675C149.586 439.53 149.411 458.627 151.303 475.062C156.524 520.616 175.447 562.877 207.685 601.037C227.238 624.165 251.522 645.085 279.345 662.781C285.197 666.495 298.338 674.099 304.4 677.253C307.098 678.655 309.341 679.846 309.411 679.881C309.446 679.951 308.64 683.42 307.589 687.625C306.573 691.865 304.716 699.399 303.524 704.41C302.333 709.421 298.864 723.753 295.815 736.298C292.766 748.808 288.421 766.715 286.179 776.071C282.079 793.066 280.327 800.039 278.259 807.608C277.383 810.797 277.138 812.374 277.103 815.212C277.068 818.296 277.173 818.892 277.804 819.768C279.591 822.151 282.744 821.976 289.578 819.102C294.203 817.14 295.044 816.614 328.579 794.643C353.459 778.349 373.397 765.313 388.851 755.221C395.404 750.946 407.003 743.377 414.607 738.401C422.211 733.425 431.602 727.293 435.421 724.805L442.43 720.284L444.357 720.495C452.837 721.511 456.201 721.826 464.296 722.457C492.785 724.629 524.252 724.104 550.744 721.02C573.03 718.427 598.19 713.556 618.725 707.88C627.766 705.392 647.704 698.664 658.077 694.599C663.543 692.496 673.04 688.361 680.223 684.962C725.742 663.587 763.763 635.133 792.882 600.687C822.633 565.505 841.696 524.681 847.863 482.946C849.755 470.086 850.001 466.407 850.001 450.883C850.001 435.36 849.755 431.715 847.863 418.82C843.027 386.091 830.167 353.572 810.473 324.453C792.672 298.031 770.035 274.553 742.422 253.913C704.157 225.284 657.937 203.734 607.336 191.049C577.341 183.48 545.347 179.169 513.074 178.258C502.001 177.943 499.373 177.943 489.07 178.153ZM432.408 371.198C436.157 372.285 439.802 374.457 442.64 377.296C445.548 380.204 446.915 382.482 448.737 387.528C449.403 389.315 453.328 399.862 457.463 410.936C461.598 422.009 468.641 440.861 473.091 452.811C477.542 464.76 481.606 475.623 482.132 476.989C482.623 478.321 483.429 479.898 483.884 480.458C485.741 482.666 486.968 485.89 487.248 489.254C487.388 490.796 491.173 501.448 497.691 518.759C498.672 521.282 499.583 524.331 499.758 525.487C500.914 533.757 494.957 541.676 486.547 543.078C479.749 544.199 472.776 540.345 469.832 533.827C469.202 532.46 466.574 525.592 463.98 518.584L459.32 505.899L424.769 505.969L390.253 506.074L385.627 517.463C378.373 535.229 378.233 535.544 376.551 537.401C373.362 540.941 369.368 542.693 364.532 542.693C358.33 542.693 353.073 539.329 350.34 533.582C349.324 531.444 349.254 531.059 349.254 527.274V523.244L352.127 516.236C353.704 512.382 357.594 502.85 360.747 495.036C363.936 487.222 367.966 477.305 369.753 472.96C371.54 468.614 374.834 460.485 377.112 454.913C379.39 449.306 382.543 441.597 384.12 437.743C385.697 433.888 388.851 426.144 391.129 420.572C393.371 414.965 396.28 407.887 397.541 404.803C398.803 401.72 401.256 395.692 402.973 391.452C406.687 382.342 407.038 381.606 409.14 379.013C412.609 374.632 418.216 371.479 424.243 370.532C425.995 370.252 430.305 370.603 432.408 371.198ZM647.354 372.074C651.314 372.915 655.764 376.034 657.656 379.223C659.829 382.972 659.724 381.185 659.899 411.286L660.074 438.794L670.937 428.281C676.894 422.499 687.232 412.477 693.889 406.03C726.233 374.667 725.182 375.614 728.125 374.212C730.438 373.126 731.244 372.915 733.837 372.81C738.743 372.565 742.107 373.791 745.646 377.085C750.587 381.641 751.954 388.894 749.045 395.027C747.784 397.725 746.627 398.881 719.82 424.812C707.486 436.726 697.394 446.643 697.394 446.818C697.394 446.959 699.041 449.411 701.003 452.25C703 455.053 708.222 462.447 712.567 468.649C716.947 474.887 724.095 485.049 728.476 491.251C746.067 516.306 748.625 520.021 749.255 521.527C753.285 530.884 747.223 541.571 736.991 543.148C732.12 543.884 727.179 542.272 723.815 538.768C722.799 537.752 716.526 529.096 709.833 519.565C703.14 510.034 694.695 498.049 691.121 492.933C687.512 487.817 682.291 480.388 679.522 476.394C676.719 472.399 674.301 469.175 674.161 469.21C673.986 469.245 670.727 472.294 666.907 475.938L659.934 482.596L659.899 506.459C659.899 529.377 659.864 530.463 659.198 532.636C658.357 535.369 656.185 538.768 654.292 540.24C653.556 540.8 651.874 541.817 650.543 542.412C648.51 543.393 647.704 543.569 644.831 543.674C642.133 543.779 641.117 543.639 639.435 543.078C633.583 541.011 629.658 536.35 628.712 530.323C628.186 527.029 628.221 388.334 628.712 385.075C630.113 376.209 638.699 370.252 647.354 372.074ZM364.111 372.775C368.071 373.686 372.556 376.98 374.414 380.344C379.565 389.84 374.098 401.614 363.621 403.542C362.289 403.787 354.65 403.927 342.175 403.927H322.797V466.617C322.797 507.125 322.657 529.937 322.447 531.164C322.237 532.215 321.641 534.002 321.08 535.159C318.137 541.186 312.6 544.375 305.837 544.024C303.314 543.884 302.473 543.674 300.265 542.588C296.901 540.941 294.413 538.418 292.731 535.018L291.435 532.39L291.33 468.159L291.26 403.927H271.005C249.034 403.927 248.544 403.892 244.969 401.965C241.01 399.792 237.576 394.816 236.945 390.261C235.824 382.447 240.834 375.018 248.614 372.915C250.156 372.53 259.407 372.425 306.503 372.425C343.121 372.425 363.095 372.53 364.111 372.775ZM538.689 373.791C544.401 375.543 548.431 380.064 549.482 385.846C549.763 387.282 549.868 406.766 549.868 449.376V510.805H574.502C590.762 510.805 599.837 510.945 601.204 511.19C609.439 512.697 615.431 521.107 613.994 529.061C612.873 535.369 608.423 540.24 602.325 541.852C600.819 542.237 594.511 542.342 566.653 542.342C545.347 542.342 532.102 542.202 530.945 541.992C526.74 541.186 522.325 537.997 520.328 534.353C518.225 530.498 518.33 534.633 518.33 457.541C518.33 380.484 518.225 385.18 520.293 381.08C522.01 377.681 525.864 374.667 529.894 373.581C532.347 372.915 536.166 372.985 538.689 373.791Z" fill="#E3E6F2"/>
<path d="M425.89 418.645C425.715 419.135 423.087 425.513 420.108 432.837C417.13 440.16 412.119 452.425 409 460.099C405.881 467.773 403.393 474.116 403.463 474.221C403.568 474.291 413.485 474.326 425.575 474.291L447.476 474.186L439.626 453.161C435.316 441.597 430.796 429.543 429.64 426.354C428.448 423.165 427.187 419.941 426.871 419.17C426.241 417.769 426.241 417.769 425.89 418.645Z" fill="#E3E6F2"/>
</g>
<defs>
<filter id="filter0_ii_12_44" x="130" y="158" width="740" height="683.423" filterUnits="userSpaceOnUse" color-interpolation-filters="sRGB">
<feFlood flood-opacity="0" result="BackgroundImageFix"/>
<feBlend mode="normal" in="SourceGraphic" in2="BackgroundImageFix" result="shape"/>
<feColorMatrix in="SourceAlpha" type="matrix" values="0 0 0 0 0 0 0 0 0 0 0 0 0 0 0 0 0 0 127 0" result="hardAlpha"/>
<feOffset dx="20" dy="20"/>
<feGaussianBlur stdDeviation="20"/>
<feComposite in2="hardAlpha" operator="arithmetic" k2="-1" k3="1"/>
<feColorMatrix type="matrix" values="0 0 0 0 0.756863 0 0 0 0 0.768627 0 0 0 0 0.807843 0 0 0 1 0"/>
<feBlend mode="normal" in2="shape" result="effect1_innerShadow_12_44"/>
<feColorMatrix in="SourceAlpha" type="matrix" values="0 0 0 0 0 0 0 0 0 0 0 0 0 0 0 0 0 0 127 0" result="hardAlpha"/>
<feOffset dx="-20" dy="-20"/>
<feGaussianBlur stdDeviation="20"/>
<feComposite in2="hardAlpha" operator="arithmetic" k2="-1" k3="1"/>
<feColorMatrix type="matrix" values="0 0 0 0 1 0 0 0 0 1 0 0 0 0 1 0 0 0 1 0"/>
<feBlend mode="normal" in2="effect1_innerShadow_12_44" result="effect2_innerShadow_12_44"/>
</filter>
<clipPath id="clip0_12_44">
<rect width="700" height="643.423" fill="white" transform="translate(150 178)"/>
</clipPath>
</defs>
</svg>
