<svg width="1000" height="1000" viewBox="0 0 1000 1000" fill="none" xmlns="http://www.w3.org/2000/svg">
<g filter="url(#filter0_ii_1_2)">
<path fill-rule="evenodd" clip-rule="evenodd" d="M562 200.5V499.5V500H561.998C561.729 534.288 533.851 562 499.5 562C465.149 562 437.271 534.288 437.002 500H437V499.5V200.5V200H437.002C437.271 165.712 465.149 138 499.5 138C533.851 138 561.729 165.712 561.998 200H562V200.5ZM355.368 327.635C369.194 316.171 378 298.864 378 279.5C378 244.982 350.018 217 315.5 217C299.83 217 285.507 222.767 274.537 232.294C126.906 356.62 107.77 577.062 231.884 724.976C263.407 762.543 301.142 791.823 342.327 812.573C392.027 837.693 446.111 850.038 499.988 850.008C553.865 850.038 607.951 837.693 657.652 812.572C698.835 791.822 736.569 762.542 768.091 724.976C892.205 577.062 873.07 356.62 725.438 232.294C714.469 222.767 700.146 217 684.475 217C649.958 217 621.975 244.982 621.975 279.5C621.975 298.864 630.781 316.171 644.607 327.635L644.603 327.64C739.795 407.515 752.211 549.435 672.336 644.627C663.773 654.832 654.496 664.086 644.641 672.377L644.627 672.36C631.876 683.059 618.287 692.102 604.121 699.512C571.757 716.391 535.944 724.985 499.988 725.005C448.909 725.034 397.539 707.762 355.348 672.36L355.334 672.377C345.479 664.086 336.203 654.832 327.64 644.627C247.764 549.435 260.181 407.515 355.373 327.64L355.368 327.635Z" fill="#E3E6F2"/>
</g>
<defs>
<filter id="filter0_ii_1_2" x="129.992" y="118" width="739.992" height="752.008" filterUnits="userSpaceOnUse" color-interpolation-filters="sRGB">
<feFlood flood-opacity="0" result="BackgroundImageFix"/>
<feBlend mode="normal" in="SourceGraphic" in2="BackgroundImageFix" result="shape"/>
<feColorMatrix in="SourceAlpha" type="matrix" values="0 0 0 0 0 0 0 0 0 0 0 0 0 0 0 0 0 0 127 0" result="hardAlpha"/>
<feOffset dx="20" dy="20"/>
<feGaussianBlur stdDeviation="20"/>
<feComposite in2="hardAlpha" operator="arithmetic" k2="-1" k3="1"/>
<feColorMatrix type="matrix" values="0 0 0 0 0.756863 0 0 0 0 0.768627 0 0 0 0 0.807843 0 0 0 1 0"/>
<feBlend mode="normal" in2="shape" result="effect1_innerShadow_1_2"/>
<feColorMatrix in="SourceAlpha" type="matrix" values="0 0 0 0 0 0 0 0 0 0 0 0 0 0 0 0 0 0 127 0" result="hardAlpha"/>
<feOffset dx="-20" dy="-20"/>
<feGaussianBlur stdDeviation="40"/>
<feComposite in2="hardAlpha" operator="arithmetic" k2="-1" k3="1"/>
<feColorMatrix type="matrix" values="0 0 0 0 1 0 0 0 0 1 0 0 0 0 1 0 0 0 1 0"/>
<feBlend mode="normal" in2="effect1_innerShadow_1_2" result="effect2_innerShadow_1_2"/>
</filter>
</defs>
</svg>
