<svg width="700" height="712" viewBox="0 0 700 712" fill="none" xmlns="http://www.w3.org/2000/svg">
<g filter="url(#filter0_ii_3_124)">
<path fill-rule="evenodd" clip-rule="evenodd" d="M412 62.5V361.5V362H411.998C411.729 396.288 383.851 424 349.5 424C315.149 424 287.271 396.288 287.002 362H287V361.5V62.5V62H287.002C287.271 27.7124 315.149 0 349.5 0C383.851 0 411.729 27.7124 411.998 62H412V62.5ZM205.368 189.635C219.194 178.171 228 160.864 228 141.5C228 106.982 200.018 79 165.5 79C149.83 79 135.507 84.7669 124.537 94.2942C-23.0942 218.62 -42.2299 439.062 81.8843 586.976C113.407 624.543 151.142 653.823 192.327 674.573C242.027 699.693 296.111 712.038 349.988 712.008C403.865 712.038 457.951 699.693 507.652 674.572C548.835 653.822 586.569 624.542 618.091 586.976C742.205 439.062 723.07 218.62 575.438 94.294C564.469 84.7668 550.146 79 534.475 79C499.958 79 471.975 106.982 471.975 141.5C471.975 160.864 480.781 178.171 494.607 189.635L494.603 189.64C589.795 269.515 602.211 411.435 522.336 506.627C513.773 516.832 504.496 526.086 494.641 534.377L494.627 534.36C481.876 545.059 468.287 554.102 454.121 561.512C421.757 578.391 385.944 586.985 349.988 587.005C298.909 587.034 247.539 569.762 205.348 534.36L205.334 534.377C195.479 526.086 186.203 516.832 177.64 506.627C97.7645 411.435 110.181 269.515 205.373 189.64L205.368 189.635Z" fill="#E3E6F2"/>
</g>
<defs>
<filter id="filter0_ii_3_124" x="-40.0083" y="-40" width="779.992" height="792.008" filterUnits="userSpaceOnUse" color-interpolation-filters="sRGB">
<feFlood flood-opacity="0" result="BackgroundImageFix"/>
<feBlend mode="normal" in="SourceGraphic" in2="BackgroundImageFix" result="shape"/>
<feColorMatrix in="SourceAlpha" type="matrix" values="0 0 0 0 0 0 0 0 0 0 0 0 0 0 0 0 0 0 127 0" result="hardAlpha"/>
<feOffset dx="40" dy="40"/>
<feGaussianBlur stdDeviation="40"/>
<feComposite in2="hardAlpha" operator="arithmetic" k2="-1" k3="1"/>
<feColorMatrix type="matrix" values="0 0 0 0 0.819608 0 0 0 0 0.831373 0 0 0 0 0.87451 0 0 0 1 0"/>
<feBlend mode="normal" in2="shape" result="effect1_innerShadow_3_124"/>
<feColorMatrix in="SourceAlpha" type="matrix" values="0 0 0 0 0 0 0 0 0 0 0 0 0 0 0 0 0 0 127 0" result="hardAlpha"/>
<feOffset dx="-40" dy="-40"/>
<feGaussianBlur stdDeviation="40"/>
<feComposite in2="hardAlpha" operator="arithmetic" k2="-1" k3="1"/>
<feColorMatrix type="matrix" values="0 0 0 0 0.960784 0 0 0 0 0.972549 0 0 0 0 1 0 0 0 1 0"/>
<feBlend mode="normal" in2="effect1_innerShadow_3_124" result="effect2_innerShadow_3_124"/>
</filter>
</defs>
</svg>
