<svg width="1000" height="1000" viewBox="0 0 1000 1000" fill="none" xmlns="http://www.w3.org/2000/svg">
<g filter="url(#filter0_ii_12_36)">
<path d="M754.031 256.589C754.031 256.589 810.692 234.496 805.97 288.152C804.396 310.246 790.232 387.574 779.214 471.215L741.44 718.982C741.44 718.982 738.293 755.278 709.962 761.591C681.631 767.903 639.137 739.498 631.266 733.185C624.97 728.451 513.224 657.434 473.875 622.716C462.858 613.247 450.266 594.309 475.449 572.215L640.71 414.403C659.597 395.465 678.484 351.278 599.788 404.934L379.441 554.857C379.441 554.857 354.259 570.637 307.042 556.435L204.737 524.872C204.737 524.872 166.963 501.2 231.494 477.527C388.885 403.355 582.476 327.605 754.031 256.589Z" fill="#E3E6F2"/>
</g>
<defs>
<filter id="filter0_ii_12_36" x="130" y="130" width="740" height="740" filterUnits="userSpaceOnUse" color-interpolation-filters="sRGB">
<feFlood flood-opacity="0" result="BackgroundImageFix"/>
<feBlend mode="normal" in="SourceGraphic" in2="BackgroundImageFix" result="shape"/>
<feColorMatrix in="SourceAlpha" type="matrix" values="0 0 0 0 0 0 0 0 0 0 0 0 0 0 0 0 0 0 127 0" result="hardAlpha"/>
<feOffset dx="20" dy="20"/>
<feGaussianBlur stdDeviation="20"/>
<feComposite in2="hardAlpha" operator="arithmetic" k2="-1" k3="1"/>
<feColorMatrix type="matrix" values="0 0 0 0 0.756863 0 0 0 0 0.768627 0 0 0 0 0.807843 0 0 0 1 0"/>
<feBlend mode="normal" in2="shape" result="effect1_innerShadow_12_36"/>
<feColorMatrix in="SourceAlpha" type="matrix" values="0 0 0 0 0 0 0 0 0 0 0 0 0 0 0 0 0 0 127 0" result="hardAlpha"/>
<feOffset dx="-20" dy="-20"/>
<feGaussianBlur stdDeviation="20"/>
<feComposite in2="hardAlpha" operator="arithmetic" k2="-1" k3="1"/>
<feColorMatrix type="matrix" values="0 0 0 0 1 0 0 0 0 1 0 0 0 0 1 0 0 0 1 0"/>
<feBlend mode="normal" in2="effect1_innerShadow_12_36" result="effect2_innerShadow_12_36"/>
</filter>
</defs>
</svg>
